<svg width="32768" height="5155" viewBox="0 0 32768 5155" fill="none" xmlns="http://www.w3.org/2000/svg">
<g clip-path="url(#clip0_611_5251)">
<path d="M21384 1710.44H23541.5V2113.59H22663.4H22260.3L22455.4 2319.77L22663.4 2516.74V3339.61H22260.3V2113.59H21384V1710.44Z" fill="#1C223A"/>
<path d="M8573.13 2113.59V2323.45H9523.03V2726.6H8573.13V2936.46H9893.04V3339.61H8169.98V1710.44H9893.04V2113.59H8573.13Z" fill="#1C223A"/>
<path d="M10230.2 2524.15C10230.2 2417.38 10252.3 2310.6 10292.8 2213.04C10333.3 2113.63 10394 2023.43 10469.5 1947.95C10545 1872.48 10635.2 1811.73 10734.6 1771.23C10832.2 1730.73 10938.9 1708.64 11045.7 1708.64H11966.1V2109.95H11073.3C10964.7 2109.95 10859.8 2154.13 10782.4 2231.45C10705.1 2308.76 10660.9 2413.69 10660.9 2522.31C10660.9 2630.92 10705.1 2735.85 10782.4 2813.16C10859.8 2890.48 10964.7 2934.66 11073.3 2934.66H11966.1V3335.97H11104.6C11099.1 3335.97 11095.4 3335.97 11089.9 3337.81C11086.2 3337.81 11080.7 3337.81 11075.1 3337.81C11071.5 3337.81 11065.9 3337.81 11062.3 3337.81C11056.7 3335.97 11053.1 3335.97 11047.5 3335.97C10940.8 3335.97 10834 3313.88 10736.4 3273.38C10637 3232.88 10546.8 3172.14 10471.3 3096.66C10395.9 3021.18 10337 2930.98 10296.5 2831.57C10254.1 2734.01 10233.9 2627.24 10233.9 2520.46L10230.2 2524.15Z" fill="#1C223A"/>
<path d="M14213.5 1710.44V3339.61H13810.4V2726.6H12702.2V3339.61H12299V1710.44H12702.2V2323.45H13810.4V1710.44H14213.5Z" fill="#1C223A"/>
<path d="M16454 1710.44V3339.61H16050.8L14953.6 2271.9V3339.61H14550.5V1710.44H14953.6L16050.8 2778.15V1710.44H16454Z" fill="#1C223A"/>
<path fill-rule="evenodd" clip-rule="evenodd" d="M18742.1 2071.24V2967.75C18742.1 3015.61 18732.9 3063.47 18714.5 3109.5C18696.1 3153.68 18668.5 3194.18 18633.5 3227.31C18600.4 3262.29 18559.9 3289.9 18515.7 3308.31C18469.7 3326.72 18421.8 3335.92 18373.9 3335.92H17160.8C17112.9 3335.92 17065.1 3326.72 17019.1 3308.31C16974.9 3289.9 16934.4 3262.29 16901.2 3227.31C16866.3 3194.18 16838.6 3153.68 16820.2 3109.5C16801.8 3063.47 16792.6 3015.61 16792.6 2967.75V2071.24C16792.6 2023.38 16801.8 1975.52 16820.2 1929.49C16838.6 1885.31 16866.3 1844.81 16901.2 1811.68C16934.4 1776.7 16974.9 1749.09 17019.1 1730.68C17065.1 1712.27 17112.9 1703.07 17160.8 1703.07H18372.1C18420 1703.07 18467.8 1712.27 18513.8 1730.68C18558 1749.09 18598.5 1776.7 18631.7 1811.68C18666.6 1844.81 18694.3 1885.31 18712.7 1929.49C18731.1 1975.52 18740.3 2023.38 18740.3 2071.24H18742.1ZM18337.1 2196.42C18337.1 2183.53 18335.3 2172.49 18329.8 2161.44C18326.1 2150.4 18318.7 2139.35 18309.5 2130.15C18302.1 2122.79 18291.1 2115.42 18280.1 2109.9C18269 2106.22 18258 2102.54 18245.1 2102.54H17284.1C17271.3 2102.54 17260.2 2104.38 17247.3 2109.9C17236.3 2113.58 17227.1 2120.94 17217.9 2130.15C17208.7 2139.35 17201.3 2148.56 17197.6 2159.6C17192.1 2172.49 17190.3 2183.53 17190.3 2196.42V2842.57C17190.3 2855.46 17192.1 2866.5 17197.6 2879.39C17201.3 2890.43 17208.7 2899.64 17217.9 2908.84C17227.1 2918.05 17236.3 2925.41 17247.3 2929.09C17260.2 2934.61 17271.3 2936.45 17284.1 2936.45H18246.9C18259.8 2936.45 18270.9 2932.77 18281.9 2929.09C18292.9 2923.57 18304 2916.2 18311.4 2908.84C18320.6 2899.64 18327.9 2888.59 18331.6 2877.55C18337.1 2866.5 18339 2855.46 18339 2842.57L18337.1 2196.42Z" fill="#1C223A"/>
<path d="M19482.1 2209.36C19482.1 2222.25 19484 2236.98 19489.5 2249.86C19495 2262.75 19502.4 2273.8 19513.4 2283C19522.6 2294.04 19533.7 2301.41 19546.6 2306.93C19559.4 2312.45 19574.2 2314.29 19587.1 2314.29H20536.9C20671.3 2314.29 20802 2367.68 20897.8 2463.41C20993.5 2559.13 21046.9 2689.83 21046.9 2824.22C21046.9 2958.6 20993.5 3089.3 20897.8 3185.03C20802 3280.76 20671.3 3334.14 20536.9 3334.14H19064.2V2945.72H20522.2C20535.1 2945.72 20549.8 2943.87 20562.7 2938.35C20575.6 2932.83 20586.6 2925.47 20595.9 2914.42C20606.9 2905.22 20614.3 2894.17 20619.8 2881.28C20625.3 2868.4 20627.1 2853.67 20627.1 2840.79C20627.1 2827.9 20625.3 2813.17 20619.8 2800.29C20614.3 2787.4 20606.9 2776.35 20595.9 2767.15C20586.6 2756.11 20575.6 2748.74 20562.7 2743.22C20549.8 2737.7 20535.1 2735.86 20522.2 2735.86H19587.1C19452.7 2737.7 19322 2684.31 19224.4 2590.43C19128.7 2494.7 19073.4 2365.84 19073.4 2229.61C19071.6 2095.23 19123.2 1964.53 19218.9 1868.8C19312.8 1771.24 19443.5 1717.85 19577.8 1716.01H21050.6V2119.16H19587.1C19574.2 2119.16 19559.4 2121 19546.6 2126.52C19533.7 2132.05 19522.6 2139.41 19513.4 2150.46C19502.4 2159.66 19495 2170.71 19489.5 2183.59C19484 2196.48 19482.1 2211.21 19482.1 2224.09" fill="#1C223A"/>
<path d="M30106.1 2209.36C30106.1 2224.09 30108 2236.98 30113.5 2249.86C30119 2262.75 30126.4 2273.8 30135.6 2284.84C30146.6 2294.04 30157.7 2301.41 30170.6 2306.93C30183.5 2312.45 30196.3 2314.29 30211.1 2314.29H31161C31295.3 2314.29 31426 2367.68 31521.8 2463.41C31617.5 2559.13 31670.9 2689.83 31670.9 2824.22C31670.9 2958.6 31617.5 3089.3 31521.8 3185.03C31426 3280.76 31295.3 3334.14 31161 3334.14H29688.3V2945.72H31148.1C31161 2945.72 31175.7 2942.03 31188.6 2936.51C31201.5 2930.99 31212.5 2923.63 31221.7 2914.42C31230.9 2905.22 31238.3 2894.17 31243.8 2881.28C31249.3 2868.4 31253 2853.67 31253 2840.79C31253 2827.9 31249.3 2813.17 31243.8 2800.29C31238.3 2787.4 31230.9 2776.35 31221.7 2767.15C31212.5 2757.95 31201.5 2750.58 31188.6 2745.06C31175.7 2739.54 31161 2735.86 31148.1 2735.86H30198.2C30063.8 2737.7 29933.1 2684.31 29835.5 2590.43C29739.8 2494.7 29684.6 2365.84 29684.6 2229.61C29682.7 2095.23 29734.3 1964.53 29830 1868.8C29923.9 1771.24 30054.6 1717.85 30189 1716.01H31661.7V2119.16H30201.9C30187.1 2119.16 30174.2 2121 30161.4 2126.52C30148.5 2132.05 30137.4 2139.41 30126.4 2148.62C30117.2 2159.66 30109.8 2170.71 30104.3 2183.59C30098.8 2196.48 30096.9 2209.36 30096.9 2224.09" fill="#1C223A"/>
<path fill-rule="evenodd" clip-rule="evenodd" d="M25516.8 3339.57H25051.1L24894.6 3067.12H24033.1L23874.7 3339.57H23409L24349.7 1712.23H24572.4L25516.8 3339.57ZM24668.2 2665.81L24469.3 2323.41L24270.5 2665.81H24668.2Z" fill="#1C223A"/>
<path d="M25522.2 2524.15C25522.2 2417.38 25542.4 2310.6 25584.8 2211.2C25625.3 2113.63 25686 2023.43 25761.5 1947.95C25837 1872.48 25927.2 1811.73 26024.7 1771.23C26124.2 1728.89 26230.9 1708.64 26337.7 1708.64H27258.1V2109.95H26370.8C26262.2 2109.95 26157.3 2154.13 26080 2231.45C26002.7 2308.76 25958.5 2413.69 25958.5 2522.31C25958.5 2630.92 26002.7 2735.85 26080 2813.16C26157.3 2890.48 26262.2 2934.66 26370.8 2934.66H27245.2V3335.97H26387.4C26383.7 3335.97 26378.2 3335.97 26374.5 3337.81C26369 3337.81 26365.3 3337.81 26359.8 3337.81C26354.3 3337.81 26350.6 3337.81 26345.1 3337.81C26341.4 3335.97 26335.9 3335.97 26332.2 3335.97C26225.4 3335.97 26118.6 3313.88 26021.1 3273.38C25921.7 3232.88 25831.5 3172.14 25756 3096.66C25680.5 3021.18 25619.8 2930.98 25579.3 2831.57C25538.8 2734.01 25516.7 2627.24 25516.7 2520.46L25522.2 2524.15Z" fill="#1C223A"/>
<path d="M28138.4 2726.64L27993 2849.98V3335.97H27589.8V1708.64H27993V2323.49L28723.8 1708.64H29353.4L28449.5 2465.24L29366.3 3339.66H28786.4L28138.4 2726.64Z" fill="#1C223A"/>
<path d="M5677.61 1710.44H7833.27V2113.59H6955.17H6552.02L6749 2319.77L6955.17 2516.74V3339.61H6552.02V2113.59H5677.61V1710.44Z" fill="#1C223A"/>
<path d="M2524.07 2524.13H2522.23V2522.29L2524.07 2524.13Z" fill="#1B223B"/>
<path d="M3785.1 1261.25V2524.1H2524.09L2522.25 2522.26L1263.09 1261.25V0.252648H2524.09V1261.25H3785.1Z" fill="#1B223B"/>
<path d="M2524.07 5047.97H2522.23V5046.13L2524.07 5047.97Z" fill="#1B223B"/>
<path d="M3785.1 3785.09V5047.93H2524.09L2522.25 5046.09L1263.09 3785.09V2524.09H2524.09V3785.09H3785.1Z" fill="#1B223B"/>
<path d="M1263.21 2524.02L0.365426 1261.18H1263.21V2524.02Z" fill="#DE4741"/>
<path d="M32145.3 2016.05C32145.3 2090.81 32175 2162.51 32227.8 2215.37C32280.7 2268.24 32352.4 2297.94 32427.1 2297.94C32501.9 2297.94 32573.6 2268.24 32626.5 2215.37C32679.3 2162.51 32709 2090.81 32709 2016.05C32709 1941.29 32679.3 1869.59 32626.5 1816.73C32573.6 1763.86 32501.9 1734.17 32427.1 1734.17C32352.4 1734.17 32280.7 1763.86 32227.8 1816.73C32175 1869.59 32145.3 1941.29 32145.3 2016.05V2016.05ZM32749.3 2016.05C32749.3 2101.49 32715.4 2183.43 32654.9 2243.85C32594.5 2304.26 32512.6 2338.2 32427.1 2338.2C32341.7 2338.2 32259.8 2304.26 32199.4 2243.85C32138.9 2183.43 32105 2101.49 32105 2016.05C32105 1930.61 32138.9 1848.67 32199.4 1788.25C32259.8 1727.84 32341.7 1693.9 32427.1 1693.9C32512.6 1693.9 32594.5 1727.84 32654.9 1788.25C32715.4 1848.67 32749.3 1930.61 32749.3 2016.05V2016.05ZM32326.5 1855.05H32451.7C32520.6 1855.05 32562.1 1894.24 32562.1 1954.12C32562.1 1999.94 32535.2 2032.24 32501.9 2044.32L32568.1 2177.13H32506.9L32448.1 2053.26H32380.3V2177.13H32326.5V1855.05ZM32380.2 1898.95V2010.78H32442.6C32482.7 2010.78 32506 1992.13 32506 1956.01C32506 1919.24 32482 1898.95 32444.1 1898.95H32380.2Z" fill="#1C223A"/>
</g>
<defs>
<clipPath id="clip0_611_5251">
<rect width="50789.4" height="7989.35" fill="white" transform="translate(0.365426 0.252648) scale(0.645166)"/>
</clipPath>
</defs>
</svg>
