<svg width="32768" height="5155" viewBox="0 0 32768 5155" fill="none" xmlns="http://www.w3.org/2000/svg">
<g clip-path="url(#clip0_1698_116)">
<path d="M23545.1 1712.33V2117.32H22661.4H22256.4L22458.9 2319.82L22661.4 2522.31V3332.3H22256.4V2117.32H21391.2V1712.33H23545.1Z" fill="white"/>
<path d="M8578.57 2117.32V2319.82H9517.42V2724.81H8578.57V2927.31H9885.59V3332.3H8173.58V1712.33H9885.59V2117.32H8578.57Z" fill="white"/>
<path d="M10235.9 2522.31C10235.9 2080.5 10604.1 1712.33 11045.9 1712.33H11966.4V2117.32H11082.7C10861.8 2117.32 10677.7 2301.41 10677.7 2522.31C10677.7 2743.22 10861.8 2927.31 11082.7 2927.31H11966.4V3332.3H11101.2C11082.7 3332.3 11064.3 3332.3 11045.9 3332.3C10604.1 3332.3 10235.9 2964.13 10235.9 2522.31Z" fill="white"/>
<path d="M14212.1 1712.33V3332.3H13807.1V2724.81H12702.6V3332.3H12297.6V1712.33H12702.6V2319.82H13807.1V1712.33H14212.1Z" fill="white"/>
<path d="M16457.8 1712.33V3332.3H16052.8L14948.3 2264.59V3332.3H14543.3V1712.33H14948.3L16052.8 2780.04V1712.33H16457.8Z" fill="white"/>
<path fill-rule="evenodd" clip-rule="evenodd" d="M18740.4 2080.5V2982.53C18740.4 3185.03 18574.7 3350.71 18372.2 3350.71H17157.2C16954.7 3350.71 16789 3185.03 16789 2982.53V2080.5C16789 1878.01 16954.7 1712.33 17157.2 1712.33H18372.2C18574.7 1712.33 18740.4 1859.6 18740.4 2080.5ZM18335.4 2190.96C18335.4 2135.73 18298.6 2098.91 18243.3 2098.91H17286.1C17230.8 2098.91 17194 2135.73 17194 2190.96V2835.26C17194 2890.49 17230.8 2927.31 17286.1 2927.31H18243.3C18298.6 2927.31 18335.4 2890.49 18335.4 2835.26V2190.96Z" fill="white"/>
<path d="M19477.1 2209.37C19477.1 2264.59 19532.4 2319.82 19587.6 2319.82H20544.9C20821 2319.82 21060.3 2540.72 21060.3 2835.26C21060.3 3129.8 20839.4 3350.71 20544.9 3350.71H19072.2V2945.72H20526.4C20581.7 2945.72 20636.9 2890.49 20636.9 2835.26C20636.9 2780.04 20581.7 2724.81 20526.4 2724.81H19587.6C19311.5 2724.81 19072.2 2503.91 19072.2 2227.77C19072.2 1951.64 19293.1 1712.33 19569.2 1712.33H21041.9V2117.32H19587.6C19532.4 2117.32 19477.1 2172.55 19477.1 2209.37Z" fill="white"/>
<path d="M30098.6 2209.37C30098.6 2264.59 30135.4 2319.82 30190.6 2319.82H31147.9C31424 2319.82 31663.3 2540.72 31663.3 2835.26C31663.3 3129.8 31442.4 3350.71 31147.9 3350.71H29675.2V2945.72H31129.5C31184.7 2945.72 31239.9 2890.49 31239.9 2835.26C31239.9 2780.04 31184.7 2724.81 31129.5 2724.81H30190.6C29914.5 2724.81 29675.2 2503.91 29675.2 2227.77C29675.2 1951.64 29896.1 1712.33 30172.2 1712.33H31644.9V2117.32H30190.6C30153.8 2117.32 30098.6 2172.55 30098.6 2209.37C30098.6 2227.77 30098.6 2227.77 30098.6 2209.37Z" fill="white"/>
<path d="M32145.3 2015.79C32145.3 2090.55 32175 2162.24 32227.8 2215.11C32280.7 2267.97 32352.4 2297.67 32427.1 2297.67C32501.9 2297.67 32573.6 2267.97 32626.5 2215.11C32679.3 2162.24 32709 2090.55 32709 2015.79C32709 1941.03 32679.3 1869.33 32626.5 1816.46C32573.6 1763.6 32501.9 1733.9 32427.1 1733.9C32352.4 1733.9 32280.7 1763.6 32227.8 1816.46C32175 1869.33 32145.3 1941.03 32145.3 2015.79V2015.79ZM32749.3 2015.79C32749.3 2101.23 32715.4 2183.17 32654.9 2243.58C32594.5 2304 32512.6 2337.94 32427.1 2337.94C32341.7 2337.94 32259.8 2304 32199.4 2243.58C32138.9 2183.17 32105 2101.23 32105 2015.79C32105 1930.35 32138.9 1848.4 32199.4 1787.99C32259.8 1727.57 32341.7 1693.63 32427.1 1693.63C32512.6 1693.63 32594.5 1727.57 32654.9 1787.99C32715.4 1848.4 32749.3 1930.35 32749.3 2015.79V2015.79ZM32326.5 1854.79H32451.7C32520.6 1854.79 32562.1 1893.97 32562.1 1953.85C32562.1 1999.68 32535.2 2031.97 32501.9 2044.05L32568.1 2176.86H32506.9L32448.1 2052.99H32380.3V2176.86H32326.5V1854.79ZM32380.2 1898.68V2010.51H32442.6C32482.7 2010.51 32506 1991.87 32506 1955.74C32506 1918.98 32482 1898.68 32444.1 1898.68H32380.2Z" fill="white"/>
<path fill-rule="evenodd" clip-rule="evenodd" d="M25515.2 3332.3H25055L24889.3 3056.17H24024.1L23858.4 3332.3H23398.2L24337.1 1712.33H24558L25515.2 3332.3ZM24668.4 2669.58L24465.9 2319.82L24263.4 2669.58H24668.4Z" fill="white"/>
<path d="M25515.2 2522.31C25515.2 2080.5 25883.4 1712.33 26325.2 1712.33H27245.7V2117.32H26362C26141.1 2117.32 25957 2301.41 25957 2522.31C25957 2743.22 26141.1 2927.31 26362 2927.31H27245.7V3332.3H26380.4C26362 3332.3 26343.6 3332.3 26325.2 3332.3C25883.4 3332.3 25515.2 2964.13 25515.2 2522.31Z" fill="white"/>
<path d="M28147.1 2724.81L27999.8 2853.67V3332.3H27594.8V1712.33H27999.8V2319.82L28717.8 1712.33H29343.7L28441.6 2467.09L29362.1 3332.3H28791.4L28147.1 2724.81Z" fill="white"/>
<path d="M7824.24 1712.33V2117.32H6959.03H6554.04L6756.53 2319.82L6959.03 2522.31V3332.3H6554.04V2117.32H5670.42V1712.33H7824.24Z" fill="white"/>
<path d="M3792.29 1251.96V2522.17H2522.08L1270.28 1251.96V0.167592H2522.08V1251.96H3792.29Z" fill="white"/>
<path d="M3792.29 3792.23V5044.03H2522.08L1270.28 3792.23V2522.03H2522.08V3792.23H3792.29Z" fill="white"/>
<path d="M0.365426 1252.11H1270.57V2522.32L0.365426 1252.11Z" fill="#DE4741"/>
</g>
<defs>
<clipPath id="clip0_1698_116">
<rect width="50789.4" height="7989.35" fill="white" transform="translate(0.365426 0.167592) scale(0.645166)"/>
</clipPath>
</defs>
</svg>
